<?xml version="1.0" standalone="no"?><svg xmlns:xlink="http://www.w3.org/1999/xlink" xmlns="http://www.w3.org/2000/svg" viewBox="0 0 1000 5000.407996736027" preserveAspectRatio="xMaxYMax slice"><g transform="scale(10.879912960696315)"><rect x="0" y="0" width="91.92" height="459.6" fill="#fcfcfc"/><path d="M 0 183.84 A 91.92 91.92 0 0 1  91.92 275.76 L 0 183.84 A 91.92 91.92 0 0 0 91.92 275.76" fill="#fdb3c5"/><rect x="0" y="367.68" width="91.92" height="91.92" fill="#fcfcfc"/><path d="M 0 367.68 A 45.96 45.96 0 0 1  45.96 413.64 L 0 367.68 A 45.96 45.96 0 0 0 45.96 413.64" fill="#f5f5f5"/><path d="M 45.96 413.64 A 45.96 45.96 0 0 1  91.92 367.68 L 45.96 413.64 A 45.96 45.96 0 0 0 91.92 367.68" fill="#fe6d8f"/><path d="M 0 459.59999999999997 A 45.96 45.96 0 0 1  45.96 413.64 L 0 459.59999999999997 A 45.96 45.96 0 0 0 45.96 413.64" fill="#ff547d"/><path d="M 45.96 459.59999999999997 A 45.96 45.96 0 0 1  91.92 413.64 L 45.96 459.59999999999997 A 45.96 45.96 0 0 0 91.92 413.64" fill="#c3c4c4"/></g></svg>